<svg width="27" height="27" viewBox="0 0 27 27" fill="none" xmlns="http://www.w3.org/2000/svg">
<path fill-rule="evenodd" clip-rule="evenodd" d="M6 11.6143L12.4002 15.3094C12.4691 15.3492 12.5414 15.3779 12.6149 15.3962V22.5628L6.45646 18.9182C6.17353 18.7507 6 18.4464 6 18.1176L6 11.6143Z" fill="#3D42DF"/>
<path fill-rule="evenodd" clip-rule="evenodd" d="M20.8845 11.5161V18.1177C20.8845 18.4465 20.7109 18.7508 20.428 18.9182L14.2695 22.5628V15.3335C14.2845 15.326 14.2994 15.318 14.3141 15.3095L20.8845 11.5161Z" fill="#3D42DF"/>
<path opacity="0.499209" fill-rule="evenodd" clip-rule="evenodd" d="M6.20117 9.82083C6.27935 9.72211 6.37802 9.63868 6.49306 9.5774L13.0046 6.1092C13.278 5.9636 13.6059 5.9636 13.8792 6.1092L20.3908 9.5774C20.4795 9.62464 20.5584 9.68504 20.6258 9.75546L13.4865 13.8773C13.4396 13.9044 13.3963 13.9354 13.3569 13.9697C13.3174 13.9354 13.2741 13.9044 13.2272 13.8773L6.20117 9.82083Z" fill="#3D42DF"/>
<path d="M0 6.00001C0 2.6863 2.68629 0 6 0H20.8571C24.1708 0 26.8571 2.68629 26.8571 6V20.8571C26.8571 24.1708 24.1709 26.8571 20.8571 26.8571H6.00001C2.6863 26.8571 0 24.1709 0 20.8571V6.00001Z" fill="#03C3EC" fill-opacity="0.16"/>
</svg>
