<svg width="52" height="52" viewBox="0 0 52 52" fill="none" xmlns="http://www.w3.org/2000/svg">
<path opacity="0.21" d="M31.6562 0C42.5239 0.000161158 51.3338 8.81009 51.334 19.6777V31.6562C51.3338 42.5239 42.5239 51.3338 31.6562 51.334H19.6777C8.81009 51.3338 0.000165302 42.5239 0 31.6562V19.6777C0.00015086 8.81009 8.81009 0.000154984 19.6777 0H31.6562Z" fill="#FEC53D"/>
<path fill-rule="evenodd" clip-rule="evenodd" d="M12.8333 20.8043L23.8705 27.1767C23.9893 27.2453 24.1139 27.2949 24.2408 27.3263V39.6852L13.6204 33.4C13.1325 33.1113 12.8333 32.5864 12.8333 32.0195V20.8043ZM38.5003 20.635V32.0195C38.5003 32.5865 38.2011 33.1113 37.7132 33.4001L27.0928 39.6852V27.2181C27.1187 27.2052 27.1443 27.1914 27.1697 27.1768L38.5003 20.635Z" fill="#FEC53D"/>
<path opacity="0.499209" fill-rule="evenodd" clip-rule="evenodd" d="M13.1803 17.7114C13.3151 17.5411 13.4853 17.3973 13.6837 17.2916L24.913 11.3106C25.3844 11.0595 25.9498 11.0595 26.4212 11.3106L37.6505 17.2916C37.8035 17.373 37.9396 17.4772 38.0557 17.5987L25.744 24.7068C25.663 24.7536 25.5884 24.8071 25.5204 24.8662C25.4524 24.8071 25.3777 24.7536 25.2968 24.7068L13.1803 17.7114Z" fill="#FEC53D"/>
</svg>
