<svg width="39" height="24" viewBox="0 0 39 24" fill="none" xmlns="http://www.w3.org/2000/svg">
<path d="M14.0212 18.0308C14.0212 17.7942 13.829 17.603 13.5913 17.603H6.92892C6.69115 17.603 6.49902 17.7942 6.49902 18.0308C6.49902 18.2674 6.69115 18.4586 6.92892 18.4586H13.596C13.8287 18.4586 14.021 18.2674 14.021 18.0308H14.0212Z" fill="#051B34"/>
<path d="M6.92898 19.4048C6.69121 19.4048 6.49908 19.596 6.49908 19.8326C6.49908 20.0692 6.69122 20.2604 6.92898 20.2604H10.5508C10.7886 20.2604 10.9807 20.0692 10.9807 19.8326C10.9807 19.596 10.7886 19.4048 10.5508 19.4048H6.92898Z" fill="#051B34"/>
<path d="M29.1004 10.2686C25.2965 10.2686 22.2008 13.3491 22.2008 17.1342C22.2008 20.9194 25.2965 23.9999 29.1004 23.9999C32.9043 23.9999 36 20.9194 36 17.1342C36 13.3491 32.9043 10.2686 29.1004 10.2686ZM29.1004 23.1444C25.7718 23.1444 23.0605 20.4463 23.0605 17.1342C23.0605 13.822 25.7719 11.124 29.1004 11.124C32.429 11.124 35.1403 13.8221 35.1403 17.1342C35.1406 20.4462 32.4342 23.1444 29.1004 23.1444Z" fill="#051B34"/>
<path d="M33.1878 14.7234C33.1878 14.2806 33.0157 13.8627 32.7022 13.5506C32.0597 12.9112 31.0075 12.9112 30.355 13.5506L29.1056 14.7938L27.851 13.5455C27.2085 12.9163 26.1563 12.9163 25.5089 13.5505C25.1952 13.8627 25.0182 14.2805 25.0182 14.7234C25.0182 15.1663 25.1903 15.5841 25.5089 15.8963L26.7532 17.1395L25.5089 18.3777C25.1952 18.6898 25.0182 19.1077 25.0182 19.5506C25.0182 19.9934 25.1903 20.4064 25.5089 20.7234C26.1058 21.3174 27.2642 21.3174 27.8562 20.7234L29.1056 19.4801L30.355 20.7234C30.6636 21.0305 31.0935 21.2066 31.5285 21.2066C31.9635 21.2066 32.3935 21.0305 32.702 20.7234C33.0157 20.4113 33.1876 19.9934 33.1876 19.5506C33.1876 19.1077 33.0155 18.6899 32.702 18.3777L31.4578 17.1395L32.702 15.8963C33.0108 15.5792 33.1878 15.1665 33.1878 14.7234L33.1878 14.7234ZM32.0902 15.2872L30.5422 16.8325C30.3752 16.9986 30.3752 17.2704 30.5422 17.4366L32.0902 18.977C32.2421 19.1281 32.3229 19.3292 32.3229 19.5408C32.3229 19.7522 32.2418 19.9535 32.0902 20.1046C31.7917 20.4017 31.2556 20.4017 30.957 20.1046L29.4041 18.5594C29.3182 18.4739 29.212 18.4336 29.1007 18.4336C28.9894 18.4336 28.878 18.4739 28.7972 18.5594L27.2444 20.1046C26.9661 20.3816 26.3894 20.3816 26.1163 20.1046C25.9644 19.9535 25.8785 19.7524 25.8785 19.5408C25.8785 19.3295 25.9644 19.1281 26.1163 18.977L27.6691 17.4366C27.7502 17.356 27.7956 17.2454 27.7956 17.1347C27.7956 17.0188 27.7502 16.9131 27.6691 16.8327L26.1163 15.2875C25.9644 15.1364 25.8785 14.9352 25.8785 14.7237C25.8785 14.5123 25.9644 14.3109 26.1111 14.1599C26.4248 13.8528 26.9306 13.8528 27.2392 14.1548L28.7972 15.7C28.9642 15.8661 29.2374 15.8661 29.4044 15.7L30.9524 14.1596C31.2661 13.8526 31.777 13.8475 32.0856 14.1596C32.2374 14.3107 32.3182 14.5119 32.3182 14.7234C32.3229 14.9348 32.2419 15.1362 32.0902 15.2873L32.0902 15.2872Z" fill="#051B34"/>
<path d="M23.693 22.8177H7.34395C5.97321 22.8177 4.86025 21.7102 4.86025 20.3462V3.3324C4.86025 1.9684 5.97321 0.860921 7.34395 0.860921H12.6199V6.15638C12.6199 6.49865 12.7969 6.80059 13.0955 6.97186C13.2422 7.05737 13.404 7.09769 13.5659 7.09769C13.7277 7.09769 13.8947 7.0525 14.0414 6.96676L15.9485 5.85442C15.9739 5.83936 16.0093 5.83936 16.0344 5.85442L17.9415 6.9619C18.2349 7.13315 18.594 7.13802 18.8875 6.967C19.186 6.79574 19.363 6.49379 19.363 6.15152L19.3628 0.855821H24.6387C26.0095 0.855821 27.1276 1.9633 27.1276 3.3273V9.13117C27.1276 9.36777 27.3197 9.55895 27.5575 9.55895C27.7952 9.55895 27.9874 9.36777 27.9874 9.13117L27.9876 3.3273C27.9876 1.49006 26.4853 0 24.639 0L7.34374 0.000231738C5.49743 0.000231738 4 1.49516 4 3.32753V20.3413C4 22.1785 5.50232 23.6686 7.34374 23.6686L23.6928 23.6684C23.9306 23.6684 24.1227 23.4772 24.1227 23.2406C24.123 23.0089 23.9306 22.8177 23.6928 22.8177L23.693 22.8177ZM18.5032 6.15151C18.5032 6.18164 18.4881 6.2069 18.4627 6.22196C18.4324 6.23703 18.407 6.23703 18.3768 6.22196L16.4697 5.11449C16.323 5.02897 16.156 4.98356 15.9941 4.98356C15.8272 4.98356 15.6653 5.02874 15.5186 5.11449L13.6115 6.22683C13.5861 6.24189 13.5559 6.24189 13.5256 6.22683C13.4953 6.21176 13.4851 6.1865 13.4851 6.15638V0.856056H18.5081V6.15151H18.5032Z" fill="#051B34"/>
<path d="M17.795 16.8627H20.9415C21.1793 16.8627 21.3714 16.6715 21.3714 16.4349C21.3714 16.1983 21.1793 16.0071 20.9415 16.0071H17.795C17.1879 16.0071 16.6923 16.5004 16.6923 17.1095V19.6264C16.6923 20.2305 17.1881 20.7236 17.795 20.7236H21.5484C21.7862 20.7236 21.9783 20.5325 21.9783 20.2959C21.9783 20.0593 21.7862 19.8681 21.5484 19.8681H17.795C17.6634 19.8681 17.5572 19.7624 17.5572 19.6315V17.1145C17.5572 16.9734 17.6634 16.8627 17.795 16.8627Z" fill="#051B34"/>
</svg>
