<svg width="82" height="78" viewBox="0 0 82 78" fill="none" xmlns="http://www.w3.org/2000/svg">
<path d="M27.5 42.75V45C27.5 45.6375 27.2844 46.1719 26.8531 46.6031C26.4219 47.0344 25.8875 47.25 25.25 47.25H23C22.3625 47.25 21.8281 47.0344 21.3969 46.6031C20.9656 46.1719 20.75 45.6375 20.75 45V27L25.475 13.5C25.7 12.825 26.1031 12.2812 26.6844 11.8688C27.2656 11.4563 27.9125 11.25 28.625 11.25H34.25V6.75H47.75V11.25H53.375C54.0875 11.25 54.7344 11.4563 55.3156 11.8688C55.8969 12.2812 56.3 12.825 56.525 13.5L61.25 27V45C61.25 45.6375 61.0344 46.1719 60.6031 46.6031C60.1719 47.0344 59.6375 47.25 59 47.25H56.75C56.1125 47.25 55.5781 47.0344 55.1469 46.6031C54.7156 46.1719 54.5 45.6375 54.5 45V42.75H27.5ZM27.05 22.5H54.95L52.5875 15.75H29.4125L27.05 22.5ZM30.875 36C31.8125 36 32.6094 35.6719 33.2656 35.0156C33.9219 34.3594 34.25 33.5625 34.25 32.625C34.25 31.6875 33.9219 30.8906 33.2656 30.2344C32.6094 29.5781 31.8125 29.25 30.875 29.25C29.9375 29.25 29.1406 29.5781 28.4844 30.2344C27.8281 30.8906 27.5 31.6875 27.5 32.625C27.5 33.5625 27.8281 34.3594 28.4844 35.0156C29.1406 35.6719 29.9375 36 30.875 36ZM51.125 36C52.0625 36 52.8594 35.6719 53.5156 35.0156C54.1719 34.3594 54.5 33.5625 54.5 32.625C54.5 31.6875 54.1719 30.8906 53.5156 30.2344C52.8594 29.5781 52.0625 29.25 51.125 29.25C50.1875 29.25 49.3906 29.5781 48.7344 30.2344C48.0781 30.8906 47.75 31.6875 47.75 32.625C47.75 33.5625 48.0781 34.3594 48.7344 35.0156C49.3906 35.6719 50.1875 36 51.125 36ZM25.25 38.25H56.75V27H25.25V38.25Z" fill="#051B34"/>
<path d="M5.21023 72.1591C4.39205 72.1591 3.66477 72.0189 3.02841 71.7386C2.39583 71.4583 1.89583 71.0682 1.52841 70.5682C1.16098 70.0682 0.965909 69.4905 0.943182 68.8352H3.07955C3.09848 69.1496 3.20265 69.4242 3.39205 69.6591C3.58144 69.8902 3.83333 70.0701 4.14773 70.1989C4.46212 70.3277 4.81439 70.392 5.20455 70.392C5.62121 70.392 5.99053 70.3201 6.3125 70.1761C6.63447 70.0284 6.88636 69.8239 7.06818 69.5625C7.25 69.3011 7.33902 69 7.33523 68.6591C7.33902 68.3068 7.24811 67.9962 7.0625 67.7273C6.87689 67.4583 6.60795 67.2481 6.25568 67.0966C5.9072 66.9451 5.48674 66.8693 4.99432 66.8693H3.96591V65.2443H4.99432C5.39962 65.2443 5.75379 65.1742 6.05682 65.0341C6.36364 64.8939 6.60417 64.697 6.77841 64.4432C6.95265 64.1856 7.03788 63.8883 7.03409 63.5511C7.03788 63.2216 6.96402 62.9356 6.8125 62.6932C6.66477 62.447 6.45455 62.2557 6.18182 62.1193C5.91288 61.983 5.59659 61.9148 5.23295 61.9148C4.87689 61.9148 4.54735 61.9792 4.24432 62.108C3.94129 62.2367 3.69697 62.4205 3.51136 62.6591C3.32576 62.8939 3.22727 63.1742 3.21591 63.5H1.1875C1.20265 62.8485 1.39015 62.2765 1.75 61.7841C2.11364 61.2879 2.59848 60.9015 3.20455 60.625C3.81061 60.3447 4.49053 60.2045 5.24432 60.2045C6.02083 60.2045 6.69508 60.3504 7.26705 60.642C7.8428 60.9299 8.28788 61.3182 8.60227 61.8068C8.91667 62.2955 9.07386 62.8352 9.07386 63.4261C9.07765 64.0814 8.88447 64.6307 8.49432 65.0739C8.10795 65.517 7.60038 65.8068 6.97159 65.9432V66.0341C7.78977 66.1477 8.41667 66.4508 8.85227 66.9432C9.29167 67.4318 9.50947 68.0398 9.50568 68.767C9.50568 69.4186 9.32008 70.0019 8.94886 70.517C8.58144 71.0284 8.07386 71.4299 7.42614 71.7216C6.7822 72.0133 6.04356 72.1591 5.21023 72.1591ZM15.7571 72.2216C14.8215 72.2216 14.0185 71.9848 13.348 71.5114C12.6813 71.0341 12.1681 70.3466 11.8082 69.4489C11.4522 68.5473 11.2741 67.4621 11.2741 66.1932C11.2779 64.9242 11.4579 63.8447 11.8139 62.9545C12.1738 62.0606 12.687 61.3788 13.3537 60.9091C14.0241 60.4394 14.8253 60.2045 15.7571 60.2045C16.6889 60.2045 17.4901 60.4394 18.1605 60.9091C18.831 61.3788 19.3442 62.0606 19.7003 62.9545C20.0601 63.8485 20.2401 64.928 20.2401 66.1932C20.2401 67.4659 20.0601 68.553 19.7003 69.4545C19.3442 70.3523 18.831 71.0379 18.1605 71.5114C17.4938 71.9848 16.6927 72.2216 15.7571 72.2216ZM15.7571 70.4432C16.4844 70.4432 17.0582 70.0852 17.4787 69.3693C17.9029 68.6496 18.1151 67.5909 18.1151 66.1932C18.1151 65.2689 18.0185 64.4924 17.8253 63.8636C17.6321 63.2348 17.3594 62.7614 17.0071 62.4432C16.6548 62.1212 16.2382 61.9602 15.7571 61.9602C15.0336 61.9602 14.4616 62.3201 14.0412 63.0398C13.6207 63.7557 13.4086 64.8068 13.4048 66.1932C13.401 67.1212 13.4938 67.9015 13.6832 68.5341C13.8764 69.1667 14.1491 69.6439 14.5014 69.9659C14.8537 70.2841 15.2723 70.4432 15.7571 70.4432ZM26.429 72.2216C25.4934 72.2216 24.6903 71.9848 24.0199 71.5114C23.3532 71.0341 22.84 70.3466 22.4801 69.4489C22.1241 68.5473 21.946 67.4621 21.946 66.1932C21.9498 64.9242 22.1297 63.8447 22.4858 62.9545C22.8456 62.0606 23.3589 61.3788 24.0256 60.9091C24.696 60.4394 25.4972 60.2045 26.429 60.2045C27.3608 60.2045 28.1619 60.4394 28.8324 60.9091C29.5028 61.3788 30.0161 62.0606 30.3722 62.9545C30.732 63.8485 30.9119 64.928 30.9119 66.1932C30.9119 67.4659 30.732 68.553 30.3722 69.4545C30.0161 70.3523 29.5028 71.0379 28.8324 71.5114C28.1657 71.9848 27.3646 72.2216 26.429 72.2216ZM26.429 70.4432C27.1563 70.4432 27.7301 70.0852 28.1506 69.3693C28.5748 68.6496 28.7869 67.5909 28.7869 66.1932C28.7869 65.2689 28.6903 64.4924 28.4972 63.8636C28.304 63.2348 28.0313 62.7614 27.679 62.4432C27.3267 62.1212 26.91 61.9602 26.429 61.9602C25.7055 61.9602 25.1335 62.3201 24.7131 63.0398C24.2926 63.7557 24.0805 64.8068 24.0767 66.1932C24.0729 67.1212 24.1657 67.9015 24.3551 68.5341C24.5483 69.1667 24.821 69.6439 25.1733 69.9659C25.5256 70.2841 25.9441 70.4432 26.429 70.4432Z" fill="#5D6679"/>
<path d="M59.5753 64.1293H58.0241C57.9645 63.7978 57.8535 63.5062 57.6911 63.2543C57.5286 63.0024 57.3298 62.7886 57.0945 62.6129C56.8591 62.4373 56.5956 62.3047 56.304 62.2152C56.0156 62.1257 55.709 62.081 55.3842 62.081C54.7976 62.081 54.2723 62.2285 53.8082 62.5234C53.3475 62.8184 52.983 63.2509 52.7145 63.821C52.4493 64.3911 52.3168 65.0871 52.3168 65.9091C52.3168 66.7377 52.4493 67.437 52.7145 68.0071C52.983 68.5772 53.3492 69.008 53.8132 69.2997C54.2772 69.5914 54.7992 69.7372 55.3793 69.7372C55.7008 69.7372 56.0057 69.6941 56.294 69.608C56.5857 69.5185 56.8492 69.3875 57.0845 69.2152C57.3198 69.0429 57.5187 68.8324 57.6811 68.5838C57.8468 68.3319 57.9612 68.0436 58.0241 67.7188L59.5753 67.7237C59.4924 68.2242 59.3317 68.6849 59.093 69.1058C58.8577 69.5234 58.5545 69.8847 58.1832 70.1896C57.8153 70.4912 57.3944 70.7249 56.9205 70.8906C56.4465 71.0563 55.9295 71.1392 55.3693 71.1392C54.4877 71.1392 53.7022 70.9304 53.0128 70.5128C52.3234 70.0919 51.7798 69.4903 51.3821 68.7081C50.9877 67.9259 50.7905 66.9929 50.7905 65.9091C50.7905 64.822 50.9893 63.889 51.3871 63.1101C51.7848 62.3279 52.3284 61.728 53.0178 61.3104C53.7071 60.8894 54.491 60.679 55.3693 60.679C55.9096 60.679 56.4134 60.7569 56.8807 60.9126C57.3513 61.0651 57.7739 61.2905 58.1484 61.5888C58.523 61.8838 58.8329 62.245 59.0781 62.6726C59.3234 63.0968 59.4891 63.5824 59.5753 64.1293ZM63.5165 71.169C63.0326 71.169 62.5951 71.0795 62.204 70.9006C61.8129 70.7183 61.503 70.4548 61.2743 70.1101C61.0489 69.7654 60.9363 69.3428 60.9363 68.8423C60.9363 68.4115 61.0191 68.0568 61.1848 67.7784C61.3506 67.5 61.5743 67.2796 61.856 67.1172C62.1377 66.9548 62.4526 66.8321 62.8006 66.7493C63.1486 66.6664 63.5033 66.6035 63.8645 66.5604C64.3219 66.5073 64.6931 66.4643 64.9782 66.4311C65.2632 66.3946 65.4703 66.3366 65.5996 66.2571C65.7289 66.1776 65.7935 66.0483 65.7935 65.8693V65.8345C65.7935 65.4003 65.6709 65.0639 65.4256 64.8253C65.1837 64.5866 64.8224 64.4673 64.3418 64.4673C63.8413 64.4673 63.4469 64.5784 63.1586 64.8004C62.8735 65.0192 62.6763 65.2628 62.5669 65.5312L61.1699 65.2131C61.3356 64.7491 61.5776 64.3745 61.8958 64.0895C62.2173 63.8011 62.5868 63.5923 63.0044 63.4631C63.4221 63.3305 63.8612 63.2642 64.3219 63.2642C64.6268 63.2642 64.95 63.3007 65.2914 63.3736C65.6361 63.4432 65.9576 63.5724 66.2559 63.7614C66.5575 63.9503 66.8044 64.2204 66.9966 64.5717C67.1889 64.9197 67.285 65.3722 67.285 65.929V71H65.8333V69.956H65.7736C65.6775 70.1482 65.5333 70.3371 65.3411 70.5227C65.1489 70.7083 64.9019 70.8625 64.6003 70.9851C64.2987 71.1077 63.9374 71.169 63.5165 71.169ZM63.8397 69.9759C64.2507 69.9759 64.602 69.8946 64.8936 69.7322C65.1886 69.5698 65.4123 69.3577 65.5648 69.0959C65.7206 68.8307 65.7985 68.5473 65.7985 68.2457V67.2614C65.7454 67.3144 65.6427 67.3641 65.4902 67.4105C65.3411 67.4536 65.1704 67.4917 64.9782 67.5249C64.7859 67.5547 64.5987 67.5829 64.4164 67.6094C64.2341 67.6326 64.0816 67.6525 63.959 67.669C63.6706 67.7055 63.4071 67.7668 63.1685 67.853C62.9332 67.9392 62.7443 68.0634 62.6017 68.2259C62.4625 68.3849 62.3929 68.5971 62.3929 68.8622C62.3929 69.2301 62.5288 69.5085 62.8006 69.6974C63.0724 69.883 63.4187 69.9759 63.8397 69.9759ZM69.2649 71V63.3636H70.7017V64.5767H70.7812C70.9205 64.1657 71.1657 63.8426 71.517 63.6072C71.8717 63.3686 72.2727 63.2493 72.7202 63.2493C72.813 63.2493 72.9223 63.2526 73.0483 63.2592C73.1776 63.2659 73.2786 63.2741 73.3516 63.2841V64.706C73.2919 64.6894 73.1858 64.6712 73.0334 64.6513C72.8809 64.6281 72.7285 64.6165 72.576 64.6165C72.2247 64.6165 71.9115 64.6911 71.6364 64.8402C71.3646 64.986 71.1491 65.1899 70.9901 65.4517C70.831 65.7102 70.7514 66.0052 70.7514 66.3366V71H69.2649ZM80.3603 65.228L79.013 65.4666C78.9566 65.2943 78.8671 65.1302 78.7445 64.9744C78.6252 64.8187 78.4628 64.6911 78.2573 64.5916C78.0518 64.4922 77.7949 64.4425 77.4867 64.4425C77.0658 64.4425 76.7144 64.5369 76.4327 64.7259C76.151 64.9115 76.0101 65.1518 76.0101 65.4467C76.0101 65.7019 76.1046 65.9074 76.2935 66.0632C76.4824 66.219 76.7873 66.3466 77.2083 66.446L78.4213 66.7244C79.124 66.8868 79.6477 67.1371 79.9924 67.4751C80.3371 67.8132 80.5094 68.2524 80.5094 68.7926C80.5094 69.25 80.3768 69.6577 80.1117 70.0156C79.8498 70.3703 79.4836 70.6487 79.013 70.8509C78.5456 71.053 78.0037 71.1541 77.3873 71.1541C76.5321 71.1541 75.8345 70.9718 75.2942 70.6072C74.754 70.2393 74.4225 69.7173 74.2999 69.0412L75.7367 68.8224C75.8262 69.197 76.0101 69.4804 76.2885 69.6726C76.5669 69.8615 76.9299 69.956 77.3773 69.956C77.8645 69.956 78.254 69.8549 78.5456 69.6527C78.8373 69.4472 78.9831 69.197 78.9831 68.902C78.9831 68.6634 78.8936 68.4628 78.7147 68.3004C78.539 68.138 78.2689 68.0154 77.9043 67.9325L76.6117 67.6491C75.8991 67.4867 75.3721 67.2282 75.0307 66.8736C74.6926 66.5189 74.5236 66.0698 74.5236 65.5263C74.5236 65.0755 74.6496 64.6811 74.9015 64.343C75.1533 64.005 75.5014 63.7415 75.9455 63.5526C76.3896 63.3603 76.8984 63.2642 77.4718 63.2642C78.2971 63.2642 78.9467 63.4432 79.4206 63.8011C79.8946 64.1558 80.2078 64.6314 80.3603 65.228Z" fill="#667085"/>
</svg>
