<svg width="27" height="27" viewBox="0 0 27 27" fill="none" xmlns="http://www.w3.org/2000/svg">
<path fill-rule="evenodd" clip-rule="evenodd" d="M6 10.6143L12.4002 14.3094C12.4691 14.3492 12.5414 14.3779 12.6149 14.3962V21.5628L6.45646 17.9182C6.17353 17.7507 6 17.4464 6 17.1176L6 10.6143Z" fill="#767677"/>
<path fill-rule="evenodd" clip-rule="evenodd" d="M20.8845 10.5161V17.1177C20.8845 17.4465 20.7109 17.7508 20.428 17.9182L14.2695 21.5628V14.3335C14.2845 14.326 14.2994 14.318 14.3141 14.3095L20.8845 10.5161Z" fill="#767677"/>
<path opacity="0.499209" fill-rule="evenodd" clip-rule="evenodd" d="M6.20117 8.82083C6.27935 8.72211 6.37802 8.63868 6.49306 8.5774L13.0046 5.1092C13.278 4.9636 13.6059 4.9636 13.8792 5.1092L20.3908 8.5774C20.4795 8.62464 20.5584 8.68504 20.6258 8.75546L13.4865 12.8773C13.4396 12.9044 13.3963 12.9354 13.3569 12.9697C13.3174 12.9354 13.2741 12.9044 13.2272 12.8773L6.20117 8.82083Z" fill="#8D8D96"/>
<path d="M0 6.00001C0 2.6863 2.68629 0 6 0H20.8571C24.1708 0 26.8571 2.68629 26.8571 6V20.8571C26.8571 24.1708 24.1709 26.8571 20.8571 26.8571H6.00001C2.6863 26.8571 0 24.1709 0 20.8571V6.00001Z" fill="#8592A3" fill-opacity="0.16"/>
</svg>
