<svg width="15" height="17" viewBox="0 0 15 17" fill="none" xmlns="http://www.w3.org/2000/svg">
<path fill-rule="evenodd" clip-rule="evenodd" d="M0 5.61426L6.40019 9.30941C6.46911 9.3492 6.54137 9.37794 6.61493 9.39618V16.5628L0.456463 12.9182C0.173535 12.7507 0 12.4464 0 12.1176L0 5.61426Z" fill="#767677"/>
<path fill-rule="evenodd" clip-rule="evenodd" d="M14.8845 5.51611V12.1177C14.8845 12.4465 14.7109 12.7508 14.428 12.9182L8.26953 16.5628V9.33349C8.28454 9.32599 8.29941 9.318 8.31413 9.3095L14.8845 5.51611Z" fill="#767677"/>
<path opacity="0.499209" fill-rule="evenodd" clip-rule="evenodd" d="M0.201172 3.82083C0.279348 3.72211 0.37802 3.63868 0.49306 3.5774L7.00463 0.109196C7.27799 -0.0363986 7.60588 -0.0363986 7.87923 0.109196L14.3908 3.5774C14.4795 3.62464 14.5584 3.68504 14.6258 3.75546L7.48653 7.8773C7.43959 7.90441 7.3963 7.93542 7.35686 7.96969C7.31742 7.93542 7.27414 7.90441 7.22719 7.8773L0.201172 3.82083Z" fill="#8D8D96"/>
</svg>
