<svg width="32" height="32" viewBox="0 0 32 32" fill="none" xmlns="http://www.w3.org/2000/svg">
<path d="M15.9999 2.66699C8.64819 2.66699 2.66669 8.64849 2.66669 16.0002C2.66669 19.2873 3.86459 22.2978 5.84375 24.6246C5.86909 24.6636 5.89815 24.7006 5.9321 24.7345C5.93978 24.7422 5.94838 24.7471 5.95605 24.7543C8.40234 27.5573 11.9965 29.3332 16 29.3332C20.0036 29.3332 23.5976 27.5573 26.044 24.7543C26.0517 24.7473 26.0607 24.742 26.0679 24.7345C26.1019 24.7006 26.1312 24.6632 26.1563 24.6246C28.1354 22.2976 29.3334 19.287 29.3334 16.0002C29.3334 8.64849 23.3519 2.66699 16.0001 2.66699H15.9999ZM15.9999 28.0001C12.5922 28.0001 9.51425 26.5702 7.32796 24.2815L8.24129 23.3682C9.12366 22.4861 10.2964 22.0001 11.5435 22.0001H20.4565C21.7034 22.0001 22.8762 22.4861 23.7584 23.368L24.6718 24.2813C22.4856 26.5699 19.4076 28.0001 15.9998 28.0001H15.9999ZM25.5415 23.2657L24.7012 22.4254C23.5672 21.2914 22.0599 20.6667 20.4565 20.6667H11.5435C9.94002 20.6667 8.43289 21.2914 7.29891 22.4254L6.45862 23.2657C4.91774 21.2475 4.00001 18.7294 4.00001 16.0003C4.00001 9.38367 9.38294 4.00037 15.9999 4.00037C22.6165 4.00037 27.9998 9.38331 27.9998 16.0003C27.9998 18.7295 27.0821 21.2476 25.5414 23.2657H25.5415ZM15.9999 8.667C13.0593 8.667 10.6665 11.0595 10.6665 14.0004C10.6665 16.941 13.059 19.3338 15.9999 19.3338C18.9405 19.3338 21.3333 16.9413 21.3333 14.0004C21.3333 11.0595 18.9405 8.667 15.9999 8.667ZM15.9999 18.0003C13.7943 18.0003 12 16.2059 12 14.0004C12 11.7947 13.7943 10.0004 15.9999 10.0004C18.2055 10.0004 19.9998 11.7948 19.9998 14.0004C19.9998 16.206 18.2055 18.0003 15.9999 18.0003Z" fill="#051B34"/>
</svg>
