<svg width="70" height="46" viewBox="0 0 70 46" fill="none" xmlns="http://www.w3.org/2000/svg">
<path d="M46.9375 0.5L47.1094 0.504883C47.9634 0.558312 48.7464 1.00731 49.2588 1.70703L49.2617 1.71191L52.8096 6.66992C52.8456 6.72035 52.8925 6.79349 52.9297 6.87891C53.0024 7.04614 53.0012 7.20371 52.9961 7.29492C52.9936 7.3391 52.9885 7.38742 52.9863 7.41113C52.9836 7.44158 52.9824 7.45611 52.9824 7.46484L52.9834 31.8281C52.9832 33.2666 51.8066 34.5 50.3145 34.5H19.668C18.1818 34.4998 17.0002 33.3143 17 31.8281V7.26562C17.0001 7.09455 17.0594 6.95389 17.0938 6.87891C17.1333 6.79262 17.1805 6.71911 17.2227 6.66016L20.7627 1.71191C21.2803 0.945375 22.1864 0.500094 23.0869 0.5H46.9375ZM19.334 8.18359C19.0578 8.18359 18.834 8.40745 18.834 8.68359V31.8271C18.834 32.2722 19.2047 32.6639 19.668 32.6641H50.3564C50.7986 32.6641 51.1914 32.2936 51.1914 31.8271L51.1904 8.68359C51.1904 8.40746 50.9666 8.18359 50.6904 8.18359H41.0156C40.7395 8.18368 40.5156 8.40749 40.5156 8.68359L40.5166 14.8262C40.5166 15.2533 40.302 15.6525 39.9902 15.9092C39.8915 15.9905 39.7856 16.0448 39.6875 16.0811C39.3388 16.2098 38.9146 16.2586 38.4854 16.0176L35.25 14.2705C35.1017 14.1904 34.9227 14.1904 34.7744 14.2705L31.5391 16.0186C31.3305 16.1454 31.0842 16.204 30.8848 16.2041C30.6441 16.2041 30.3733 16.1452 30.1475 15.9941V15.9932C29.782 15.749 29.5088 15.3532 29.5088 14.8262V8.68359C29.5088 8.40747 29.2849 8.18362 29.0088 8.18359H19.334ZM33.1807 2.33594C32.9578 2.33594 32.7619 2.48313 32.7002 2.69727L31.3623 7.35156C31.3494 7.39646 31.3428 7.44353 31.3428 7.49023V14.1084L34.292 12.4805C34.7395 12.2335 35.282 12.2321 35.7314 12.4756L38.6816 14.0732V7.44629C38.6816 7.40051 38.6755 7.35462 38.6631 7.31055L37.3633 2.7002C37.3026 2.48486 37.1065 2.33615 36.8828 2.33594H33.1807ZM39.8369 2.33594C39.5054 2.33611 39.2662 2.65265 39.3564 2.97168L40.208 5.98438C40.2689 6.19959 40.4658 6.34863 40.6895 6.34863H49.375C49.7812 6.34835 50.0181 5.88849 49.7822 5.55762L47.7891 2.7627C47.5829 2.50097 47.2671 2.33594 46.9375 2.33594H39.8369ZM23.0879 2.33594C22.7306 2.33594 22.4337 2.47973 22.2461 2.74805L22.2441 2.75195L20.2432 5.55762C20.0073 5.88852 20.2441 6.34746 20.6504 6.34766H29.3779C29.6016 6.34762 29.7985 6.19961 29.8594 5.98438L30.7109 2.97168C30.8012 2.65256 30.5611 2.33594 30.2295 2.33594H23.0879Z" fill="#051B34" stroke="#051A32"/>
<g filter="url(#filter0_d_5109_1271)">
<path d="M31.6767 6.84814H38.3482V7.68351H31.6767V6.84814Z" fill="#051B34"/>
<path d="M38.8486 6.34814V8.18311H31.1767V6.34814H38.8486Z" stroke="#051A32"/>
</g>
<defs>
<filter id="filter0_d_5109_1271" x="26.6767" y="5.84814" width="16.6715" height="10.8354" filterUnits="userSpaceOnUse" color-interpolation-filters="sRGB">
<feFlood flood-opacity="0" result="BackgroundImageFix"/>
<feColorMatrix in="SourceAlpha" type="matrix" values="0 0 0 0 0 0 0 0 0 0 0 0 0 0 0 0 0 0 127 0" result="hardAlpha"/>
<feOffset dy="4"/>
<feGaussianBlur stdDeviation="2"/>
<feComposite in2="hardAlpha" operator="out"/>
<feColorMatrix type="matrix" values="0 0 0 0 0 0 0 0 0 0 0 0 0 0 0 0 0 0 0.25 0"/>
<feBlend mode="normal" in2="BackgroundImageFix" result="effect1_dropShadow_5109_1271"/>
<feBlend mode="normal" in="SourceGraphic" in2="effect1_dropShadow_5109_1271" result="shape"/>
</filter>
</defs>
</svg>
