<svg width="53" height="52" viewBox="0 0 53 52" fill="none" xmlns="http://www.w3.org/2000/svg">
<path opacity="0.21" d="M32.4585 0.533447C43.3261 0.533608 52.1361 9.34354 52.1362 20.2112V32.1897C52.1361 43.0573 43.3261 51.8673 32.4585 51.8674H20.48C9.61234 51.8673 0.802411 43.0573 0.802246 32.1897V20.2112C0.802397 9.34354 9.61234 0.533602 20.48 0.533447H32.4585Z" fill="#8280FF"/>
<path d="M41.3286 21.2111H39.0821L39.1001 21.1642L38.8585 20.6665C38.1139 19.134 35.5229 14.0584 33.4675 13.1136L33.2242 13H19.3358L19.0924 13.1136C17.0334 14.0584 14.4462 19.134 13.6997 20.6665L13.4581 21.1642L13.478 21.2111H11.2315C10.5535 21.2111 10 21.6889 10 22.2803V23.4144C10 24.004 10.5535 24.4836 11.2315 24.4836H11.9454C11.8715 24.8442 11.8228 25.2156 11.8228 25.6051V30.6969C11.8228 32.2258 12.4322 33.5709 13.3589 34.4021V38.6104C13.3589 39.292 13.9106 39.8401 14.5885 39.8401H17.3597C18.0377 39.8401 18.5894 39.292 18.5894 38.6104V35.2766H33.9688V38.6104C33.9688 39.292 34.5205 39.8401 35.2003 39.8401H37.9679C38.6512 39.8401 39.1992 39.292 39.1992 38.6104V34.4021C40.1296 33.5709 40.7372 32.2258 40.7372 30.6969V25.6051C40.7372 25.2156 40.6886 24.8442 40.6128 24.4836H41.3286C42.0083 24.4836 42.5583 24.004 42.5583 23.4162V22.2803C42.5583 21.6889 42.0083 21.2111 41.3286 21.2111ZM19.9344 15.4612H32.622C33.4639 16.0958 35.0542 18.6237 36.2857 21.0235H16.2779C17.5058 18.6237 19.0961 16.0958 19.9344 15.4612Z" fill="#8280FF"/>
</svg>
