<svg width="32" height="24" viewBox="0 0 32 24" fill="none" xmlns="http://www.w3.org/2000/svg">
<path d="M10.0212 18.0308C10.0212 17.7942 9.82902 17.603 9.59125 17.603H2.92892C2.69115 17.603 2.49902 17.7942 2.49902 18.0308C2.49902 18.2674 2.69115 18.4586 2.92892 18.4586H9.59602C9.82867 18.4586 10.021 18.2674 10.021 18.0308H10.0212Z" fill="#051B34"/>
<path d="M2.92898 19.4048C2.69121 19.4048 2.49908 19.596 2.49908 19.8326C2.49908 20.0692 2.69122 20.2604 2.92898 20.2604H6.55079C6.78856 20.2604 6.98069 20.0692 6.98069 19.8326C6.98069 19.596 6.78856 19.4048 6.55079 19.4048H2.92898Z" fill="#051B34"/>
<path d="M25.1004 10.2686C21.2965 10.2686 18.2008 13.3491 18.2008 17.1342C18.2008 20.9194 21.2965 23.9999 25.1004 23.9999C28.9043 23.9999 32 20.9194 32 17.1342C32 13.3491 28.9043 10.2686 25.1004 10.2686ZM25.1004 23.1444C21.7718 23.1444 19.0605 20.4463 19.0605 17.1342C19.0605 13.822 21.7719 11.124 25.1004 11.124C28.429 11.124 31.1403 13.8221 31.1403 17.1342C31.1406 20.4462 28.4342 23.1444 25.1004 23.1444Z" fill="#051B34"/>
<path d="M29.1878 14.7234C29.1878 14.2806 29.0157 13.8627 28.7022 13.5506C28.0597 12.9112 27.0075 12.9112 26.355 13.5506L25.1056 14.7938L23.851 13.5455C23.2085 12.9163 22.1563 12.9163 21.5089 13.5505C21.1952 13.8627 21.0182 14.2805 21.0182 14.7234C21.0182 15.1663 21.1903 15.5841 21.5089 15.8963L22.7532 17.1395L21.5089 18.3777C21.1952 18.6898 21.0182 19.1077 21.0182 19.5506C21.0182 19.9934 21.1903 20.4064 21.5089 20.7234C22.1058 21.3174 23.2642 21.3174 23.8562 20.7234L25.1056 19.4801L26.355 20.7234C26.6636 21.0305 27.0935 21.2066 27.5285 21.2066C27.9635 21.2066 28.3935 21.0305 28.702 20.7234C29.0157 20.4113 29.1876 19.9934 29.1876 19.5506C29.1876 19.1077 29.0155 18.6899 28.702 18.3777L27.4578 17.1395L28.702 15.8963C29.0108 15.5792 29.1878 15.1665 29.1878 14.7234L29.1878 14.7234ZM28.0902 15.2872L26.5422 16.8325C26.3752 16.9986 26.3752 17.2704 26.5422 17.4366L28.0902 18.977C28.2421 19.1281 28.3229 19.3292 28.3229 19.5408C28.3229 19.7522 28.2418 19.9535 28.0902 20.1046C27.7917 20.4017 27.2556 20.4017 26.957 20.1046L25.4041 18.5594C25.3182 18.4739 25.212 18.4336 25.1007 18.4336C24.9894 18.4336 24.878 18.4739 24.7972 18.5594L23.2444 20.1046C22.9661 20.3816 22.3894 20.3816 22.1163 20.1046C21.9644 19.9535 21.8785 19.7524 21.8785 19.5408C21.8785 19.3295 21.9644 19.1281 22.1163 18.977L23.6691 17.4366C23.7502 17.356 23.7956 17.2454 23.7956 17.1347C23.7956 17.0188 23.7502 16.9131 23.6691 16.8327L22.1163 15.2875C21.9644 15.1364 21.8785 14.9352 21.8785 14.7237C21.8785 14.5123 21.9644 14.3109 22.1111 14.1599C22.4248 13.8528 22.9306 13.8528 23.2392 14.1548L24.7972 15.7C24.9642 15.8661 25.2374 15.8661 25.4044 15.7L26.9524 14.1596C27.2661 13.8526 27.777 13.8475 28.0856 14.1596C28.2374 14.3107 28.3182 14.5119 28.3182 14.7234C28.3229 14.9348 28.2419 15.1362 28.0902 15.2873L28.0902 15.2872Z" fill="#051B34"/>
<path d="M19.693 22.8177H3.34395C1.97321 22.8177 0.860254 21.7102 0.860254 20.3462V3.3324C0.860254 1.9684 1.97321 0.860921 3.34395 0.860921H8.61991V6.15638C8.61991 6.49865 8.79691 6.80059 9.09546 6.97186C9.24218 7.05737 9.40403 7.09769 9.56588 7.09769C9.72774 7.09769 9.89471 7.0525 10.0414 6.96676L11.9485 5.85442C11.9739 5.83936 12.0093 5.83936 12.0344 5.85442L13.9415 6.9619C14.2349 7.13315 14.594 7.13802 14.8875 6.967C15.186 6.79574 15.363 6.49379 15.363 6.15152L15.3628 0.855821H20.6387C22.0095 0.855821 23.1276 1.9633 23.1276 3.3273V9.13117C23.1276 9.36777 23.3197 9.55895 23.5575 9.55895C23.7952 9.55895 23.9874 9.36777 23.9874 9.13117L23.9876 3.3273C23.9876 1.49006 22.4853 0 20.639 0L3.34374 0.000231738C1.49743 0.000231738 0 1.49516 0 3.32753V20.3413C0 22.1785 1.50232 23.6686 3.34374 23.6686L19.6928 23.6684C19.9306 23.6684 20.1227 23.4772 20.1227 23.2406C20.123 23.0089 19.9306 22.8177 19.6928 22.8177L19.693 22.8177ZM14.5032 6.15151C14.5032 6.18164 14.4881 6.2069 14.4627 6.22196C14.4324 6.23703 14.407 6.23703 14.3768 6.22196L12.4697 5.11449C12.323 5.02897 12.156 4.98356 11.9941 4.98356C11.8272 4.98356 11.6653 5.02874 11.5186 5.11449L9.61152 6.22683C9.58614 6.24189 9.55586 6.24189 9.52559 6.22683C9.49531 6.21176 9.48507 6.1865 9.48507 6.15638V0.856056H14.5081V6.15151H14.5032Z" fill="#051B34"/>
<path d="M13.795 16.8627H16.9415C17.1793 16.8627 17.3714 16.6715 17.3714 16.4349C17.3714 16.1983 17.1793 16.0071 16.9415 16.0071H13.795C13.1879 16.0071 12.6923 16.5004 12.6923 17.1095V19.6264C12.6923 20.2305 13.1881 20.7236 13.795 20.7236H17.5484C17.7862 20.7236 17.9783 20.5325 17.9783 20.2959C17.9783 20.0593 17.7862 19.8681 17.5484 19.8681H13.795C13.6634 19.8681 13.5572 19.7624 13.5572 19.6315V17.1145C13.5572 16.9734 13.6634 16.8627 13.795 16.8627Z" fill="#051B34"/>
</svg>
