<svg width="31" height="30" viewBox="0 0 31 30" fill="none" xmlns="http://www.w3.org/2000/svg">
<path fill-rule="evenodd" clip-rule="evenodd" d="M3.01901 16.774C2.95775 16.5979 3.05083 16.4053 3.22689 16.3429C11.52 13.4561 18.7807 9.20983 24.8259 3.72649L23.1069 3.81994C22.9216 3.82951 22.7612 3.6873 22.7511 3.50021C22.741 3.31458 22.8837 3.15453 23.0701 3.14496L25.7352 3H25.7709C25.859 3.0046 25.9429 3.04397 26.0027 3.10964C26.0712 3.18433 26.1024 3.2857 26.0875 3.38633L25.7029 6.02773C25.6784 6.19588 25.534 6.31638 25.3691 6.31638C25.3529 6.31638 25.3368 6.31509 25.32 6.31233C25.1353 6.2851 25.0076 6.11457 25.0343 5.93023L25.2827 4.22396C19.1697 9.76993 11.8303 14.0636 3.44868 16.9817C3.41189 16.9951 3.37454 17.0006 3.33738 17.0006C3.19793 17.0006 3.0675 16.9138 3.01875 16.7742L3.01901 16.774ZM27.3241 27.3238V9.85891H24.7603V27.3238H27.3241ZM27.6621 9.18262H24.4228C24.2362 9.18262 24.0848 9.33421 24.0848 9.52002V27.6612C24.0848 27.8483 24.2359 27.9986 24.4228 27.9986H27.6621C27.8488 27.9986 28 27.8482 28 27.6612V9.52002C28 9.3344 27.8486 9.18262 27.6621 9.18262ZM20.2958 27.3238V13.5305H17.732V27.3238H20.2958ZM20.6338 12.8542H17.3943C17.2078 12.8542 17.0564 13.0062 17.0564 13.1918V27.6614C17.0564 27.8485 17.2078 27.9988 17.3943 27.9988H20.6336C20.8201 27.9988 20.9715 27.8483 20.9715 27.6614L20.9714 13.1918C20.9717 13.0062 20.8203 12.8542 20.6338 12.8542H20.6338ZM13.2676 27.3238V16.4985H10.7038V27.3234H13.2676V27.3238ZM13.6055 15.824H10.3662C10.1797 15.824 10.0283 15.9745 10.0283 16.1614V27.6612C10.0283 27.8483 10.1797 27.9986 10.3662 27.9986H13.6055C13.792 27.9986 13.9435 27.8482 13.9435 27.6612V16.1614C13.9435 15.9743 13.7921 15.824 13.6055 15.824ZM6.23928 27.3238H3.67587V20.8727H6.23966V27.3238H6.23928ZM6.57723 20.1973H3.33795C3.15122 20.1973 3 20.3478 3 20.5349V27.6614C3 27.8485 3.15104 27.9988 3.33795 27.9988H6.57723C6.76377 27.9988 6.91518 27.8483 6.91518 27.6614V20.5349C6.91518 20.3478 6.76378 20.1975 6.57723 20.1975V20.1973Z" fill="#051B34"/>
</svg>
